<?xml version="1.0" encoding="UTF-8"?><svg xmlns="http://www.w3.org/2000/svg" viewBox="0 0 430 427.91"><defs><style>.c{fill:none;stroke:#000000;stroke-miterlimit:10;stroke-width:30px;}.d{fill:#000000;stroke-width:0px;}</style></defs><g id="a"><path class="c" d="m213.56,15c-101.55,0-95.21,44.04-95.21,44.04l.13,45.62h96.9v13.69H79.96S15,110.97,15,213.45s56.71,98.82,56.71,98.82h33.85v-47.55s-1.82-56.71,55.81-56.71h96.1s54,.87,54-52.19v-87.74s8.2-53.09-97.91-53.09Zm-70.88,48.16"/><path class="c" d="m216.44,412.91c101.55,0,95.21-44.04,95.21-44.04l-.12-45.63h-96.9v-13.69h135.4s64.98,7.38,64.98-95.09-56.71-98.83-56.71-98.83h-33.85v47.54s1.82,56.71-55.81,56.71h-96.1s-54-.87-54,52.19v87.74s-8.2,53.09,97.91,53.09Z"/></g><g id="b"><path class="d" d="m142.69,63.11c0-9.64,7.8-17.44,17.44-17.44s17.44,7.8,17.44,17.44-7.8,17.44-17.44,17.44c-9.62.01-17.42-7.77-17.44-17.39,0-.02,0-.03,0-.05"/><path class="d" d="m252.44,364.81c0-9.64,7.8-17.44,17.44-17.44s17.44,7.8,17.44,17.44-7.8,17.44-17.44,17.44c-9.62.01-17.42-7.77-17.44-17.39,0-.02,0-.03,0-.05"/></g></svg>